<svg width="100%" height="100%" id="svg" viewBox="0 0 1440 690"
  xmlns="http://www.w3.org/2000/svg" class="transition duration-300 ease-in-out delay-150">
  <defs>
    <linearGradient id="gradient" x1="0%" y1="50%" x2="100%" y2="50%">
      <stop offset="5%" stop-color="#F78DA7"></stop>
      <stop offset="95%" stop-color="#8ED1FC"></stop>
    </linearGradient>
  </defs>
  <path d="M 0,700 L 0,105 C 91.5,82.82142857142857 183,60.64285714285714 303,75 C 423,89.35714285714286 571.5,140.25000000000003 691,135 C 810.5,129.74999999999997 901,68.35714285714286 1021,54 C 1141,39.642857142857146 1290.5,72.32142857142857 1440,105 L 1440,700 L 0,700 Z" stroke="none" stroke-width="0" fill="url(#gradient)" fill-opacity="0.265" class="transition-all duration-300 ease-in-out delay-150 path-0"></path>
  <defs>
    <linearGradient id="gradient" x1="0%" y1="50%" x2="100%" y2="50%">
      <stop offset="5%" stop-color="#F78DA7"></stop>
      <stop offset="95%" stop-color="#8ED1FC"></stop>
    </linearGradient>
  </defs>
  <path d="M 0,700 L 0,245 C 140.35714285714286,243.32142857142856 280.7142857142857,241.64285714285714 390,237 C 499.2857142857143,232.35714285714286 577.5,224.75000000000003 679,232 C 780.5,239.24999999999997 905.2857142857144,261.35714285714283 1036,266 C 1166.7142857142856,270.64285714285717 1303.3571428571427,257.82142857142856 1440,245 L 1440,700 L 0,700 Z" stroke="none" stroke-width="0" fill="url(#gradient)" fill-opacity="0.4" class="transition-all duration-300 ease-in-out delay-150 path-1"></path>
  <defs>
    <linearGradient id="gradient" x1="0%" y1="50%" x2="100%" y2="50%">
      <stop offset="5%" stop-color="#F78DA7"></stop>
      <stop offset="95%" stop-color="#8ED1FC"></stop>
    </linearGradient>
  </defs>
  <path d="M 0,700 L 0,385 C 144.89285714285714,378.32142857142856 289.7857142857143,371.64285714285717 390,372 C 490.2142857142857,372.35714285714283 545.75,379.75 669,380 C 792.25,380.25 983.2142857142858,373.3571428571429 1123,373 C 1262.7857142857142,372.6428571428571 1351.392857142857,378.82142857142856 1440,385 L 1440,700 L 0,700 Z" stroke="none" stroke-width="0" fill="url(#gradient)" fill-opacity="0.53" class="transition-all duration-300 ease-in-out delay-150 path-2"></path>
  <defs>
    <linearGradient id="gradient" x1="0%" y1="50%" x2="100%" y2="50%">
      <stop offset="5%" stop-color="#F78DA7"></stop>
      <stop offset="95%" stop-color="#8ED1FC"></stop>
    </linearGradient>
  </defs>
  <path d="M 0,700 L 0,525 C 93.85714285714286,510.6071428571429 187.71428571428572,496.2142857142857 308,501 C 428.2857142857143,505.7857142857143 575.0000000000001,529.75 712,541 C 848.9999999999999,552.25 976.2857142857142,550.7857142857143 1096,546 C 1215.7142857142858,541.2142857142857 1327.857142857143,533.1071428571429 1440,525 L 1440,700 L 0,700 Z" stroke="none" stroke-width="0" fill="url(#gradient)" fill-opacity="1" class="transition-all duration-300 ease-in-out delay-150 path-3"></path>
</svg>